<svg width="265" height="42" viewBox="0 0 265 42" fill="none" xmlns="http://www.w3.org/2000/svg">
<path d="M56.4203 32.2002C56.1775 32.2002 55.959 32.1153 55.7647 31.9454C55.5948 31.7755 55.5098 31.5571 55.5098 31.2902V14.1822C55.5098 13.9153 55.5948 13.6969 55.7647 13.527C55.959 13.3571 56.1775 13.2722 56.4203 13.2722H59.8075C60.0746 13.2722 60.2932 13.3571 60.4631 13.527C60.6331 13.6969 60.7181 13.9153 60.7181 14.1822V15.4198C61.228 14.7403 61.9079 14.1579 62.7577 13.6726C63.6318 13.1873 64.6638 12.9325 65.8536 12.9082C68.6459 12.8597 70.5763 13.9274 71.6447 16.1114C72.2031 15.165 73.0044 14.4006 74.0485 13.8182C75.0926 13.2115 76.246 12.9082 77.5086 12.9082C78.7712 12.9082 79.9124 13.1994 80.9323 13.7818C81.9521 14.3399 82.7655 15.2135 83.3725 16.4026C83.9795 17.5674 84.2831 19.0719 84.2831 20.9162V31.2902C84.2831 31.5571 84.1859 31.7755 83.9917 31.9454C83.8217 32.1153 83.6153 32.2002 83.3725 32.2002H79.7667C79.4997 32.2002 79.2811 32.1153 79.1112 31.9454C78.9412 31.7755 78.8562 31.5571 78.8562 31.2902V21.2074C78.8562 20.2125 78.7105 19.4359 78.4191 18.8778C78.152 18.3197 77.7757 17.9193 77.2901 17.6766C76.8287 17.4097 76.3067 17.2762 75.7239 17.2762C75.214 17.2762 74.7162 17.4097 74.2306 17.6766C73.7693 17.9193 73.3808 18.3197 73.0651 18.8778C72.7737 19.4359 72.6281 20.2125 72.6281 21.2074V31.2902C72.6281 31.5571 72.5431 31.7755 72.3731 31.9454C72.2031 32.1153 71.9967 32.2002 71.7539 32.2002H68.1482C67.8811 32.2002 67.6625 32.1153 67.4926 31.9454C67.3226 31.7755 67.2376 31.5571 67.2376 31.2902V21.2074C67.2376 20.2125 67.0919 19.4359 66.8006 18.8778C66.5092 18.3197 66.1207 17.9193 65.6351 17.6766C65.1737 17.4097 64.6638 17.2762 64.1053 17.2762C63.5954 17.2762 63.0977 17.4097 62.612 17.6766C62.1507 17.9193 61.7622 18.3197 61.4465 18.8778C61.1552 19.4359 61.0095 20.2003 61.0095 21.171V31.2902C61.0095 31.5571 60.9245 31.7755 60.7545 31.9454C60.5846 32.1153 60.366 32.2002 60.0989 32.2002H56.4203Z" fill="white"/>
<path d="M94.9612 32.5642C93.6743 32.5642 92.521 32.3215 91.5011 31.8362C90.4813 31.3266 89.6679 30.6471 89.0609 29.7978C88.4538 28.9485 88.1503 28.0021 88.1503 26.9586C88.1503 25.2357 88.8423 23.8767 90.2264 22.8818C91.6347 21.8869 93.4801 21.2074 95.7625 20.8434L100.534 20.1518V19.4966C100.534 18.5502 100.315 17.8222 99.8782 17.3126C99.4411 16.803 98.6763 16.5482 97.5836 16.5482C96.7823 16.5482 96.1389 16.7059 95.6532 17.0214C95.1919 17.3369 94.8277 17.7494 94.5606 18.259C94.3663 18.5745 94.075 18.7322 93.6865 18.7322H90.2264C89.9593 18.7322 89.7529 18.6594 89.6072 18.5138C89.4615 18.3439 89.4008 18.1498 89.4251 17.9314C89.4251 17.5189 89.5829 17.0335 89.8986 16.4754C90.2142 15.9173 90.6999 15.3713 91.3555 14.8374C92.011 14.2793 92.8488 13.8182 93.8686 13.4542C94.9127 13.0902 96.1631 12.9082 97.62 12.9082C99.1497 12.9082 100.461 13.0902 101.554 13.4542C102.646 13.8182 103.52 14.3278 104.176 14.983C104.856 15.6382 105.341 16.4026 105.633 17.2762C105.948 18.1255 106.106 19.0477 106.106 20.0426V31.2902C106.106 31.5571 106.021 31.7755 105.851 31.9454C105.681 32.1153 105.475 32.2002 105.232 32.2002H101.626C101.384 32.2002 101.177 32.1153 101.007 31.9454C100.837 31.7755 100.752 31.5571 100.752 31.2902V29.9434C100.437 30.4045 100.012 30.8413 99.4775 31.2538C98.9434 31.6421 98.2999 31.9575 97.5472 32.2002C96.8187 32.4429 95.9568 32.5642 94.9612 32.5642ZM96.4181 28.7786C97.2194 28.7786 97.9357 28.6087 98.567 28.269C99.1983 27.9293 99.6961 27.4075 100.06 26.7038C100.425 26.0001 100.607 25.1143 100.607 24.0466V23.4278L97.2194 23.9738C95.9325 24.1922 94.9855 24.5198 94.3785 24.9566C93.7714 25.3934 93.4679 25.9273 93.4679 26.5582C93.4679 27.0193 93.6015 27.4197 93.8686 27.7594C94.1599 28.0749 94.5242 28.3297 94.9612 28.5238C95.4226 28.6937 95.9082 28.7786 96.4181 28.7786Z" fill="white"/>
<path d="M112.119 32.2002C111.876 32.2002 111.657 32.1153 111.463 31.9454C111.293 31.7755 111.208 31.5571 111.208 31.2902V14.1822C111.208 13.9395 111.293 13.7333 111.463 13.5634C111.657 13.3693 111.876 13.2722 112.119 13.2722H115.688C115.955 13.2722 116.174 13.3693 116.344 13.5634C116.514 13.7333 116.599 13.9395 116.599 14.1822V15.6382C117.206 14.8859 117.958 14.3035 118.857 13.891C119.755 13.4785 120.775 13.2722 121.916 13.2722H123.482C123.75 13.2722 123.968 13.3571 124.138 13.527C124.308 13.6969 124.393 13.9153 124.393 14.1822V17.349C124.393 17.5917 124.308 17.7979 124.138 17.9678C123.968 18.1377 123.75 18.2226 123.482 18.2226H120.314C119.221 18.2226 118.371 18.5259 117.764 19.1326C117.181 19.7393 116.89 20.5765 116.89 21.6442V31.2902C116.89 31.5571 116.793 31.7755 116.599 31.9454C116.429 32.1153 116.222 32.2002 115.98 32.2002H112.119Z" fill="white"/>
<path d="M128.747 32.2002C128.48 32.2002 128.261 32.1153 128.091 31.9454C127.922 31.7755 127.837 31.5571 127.837 31.2902V7.2662C127.837 6.99926 127.922 6.78086 128.091 6.611C128.261 6.44113 128.48 6.3562 128.747 6.3562H132.316C132.559 6.3562 132.766 6.44113 132.936 6.611C133.13 6.78086 133.227 6.99926 133.227 7.2662V19.5694L138.8 13.891C138.994 13.7211 139.164 13.5755 139.309 13.4542C139.479 13.3329 139.734 13.2722 140.074 13.2722H144.226C144.445 13.2722 144.627 13.3571 144.773 13.527C144.943 13.6726 145.028 13.8546 145.028 14.073C145.028 14.1701 145.003 14.2793 144.955 14.4006C144.906 14.5219 144.821 14.619 144.7 14.6918L137.67 21.7534L145.61 30.817C145.805 31.0111 145.902 31.2053 145.902 31.3994C145.902 31.6178 145.829 31.8119 145.683 31.9818C145.538 32.1274 145.343 32.2002 145.101 32.2002H140.876C140.511 32.2002 140.244 32.1395 140.074 32.0182C139.929 31.8969 139.759 31.7513 139.564 31.5814L133.227 24.447V31.2902C133.227 31.5571 133.13 31.7755 132.936 31.9454C132.766 32.1153 132.559 32.2002 132.316 32.2002H128.747Z" fill="white"/>
<path d="M156.826 32.5642C154.034 32.5642 151.812 31.7877 150.161 30.2346C148.534 28.6815 147.672 26.4247 147.575 23.4642C147.575 23.2701 147.575 23.0153 147.575 22.6998C147.575 22.3601 147.575 22.1053 147.575 21.9354C147.672 20.0426 148.097 18.4289 148.85 17.0942C149.603 15.7353 150.659 14.7039 152.019 14.0002C153.378 13.2722 154.969 12.9082 156.79 12.9082C158.854 12.9082 160.566 13.3329 161.925 14.1822C163.285 15.0073 164.305 16.1478 164.985 17.6038C165.689 19.0355 166.041 20.6857 166.041 22.5542V23.3914C166.041 23.6341 165.956 23.8525 165.786 24.0466C165.616 24.2165 165.398 24.3014 165.131 24.3014H153.257C153.257 24.3014 153.257 24.3378 153.257 24.4106C153.257 24.4591 153.257 24.5077 153.257 24.5562C153.281 25.3327 153.427 26.0486 153.694 26.7038C153.961 27.3347 154.35 27.8443 154.86 28.2326C155.394 28.6209 156.037 28.815 156.79 28.815C157.373 28.815 157.858 28.7301 158.247 28.5602C158.635 28.3661 158.951 28.1598 159.194 27.9414C159.461 27.6987 159.655 27.4925 159.777 27.3226C159.995 27.0557 160.165 26.8979 160.286 26.8494C160.432 26.7766 160.639 26.7402 160.906 26.7402H164.766C164.985 26.7402 165.167 26.813 165.313 26.9586C165.483 27.1042 165.555 27.2862 165.531 27.5046C165.507 27.9171 165.301 28.4146 164.912 28.997C164.548 29.5551 164.001 30.1133 163.273 30.6714C162.545 31.2053 161.634 31.6542 160.541 32.0182C159.473 32.3822 158.235 32.5642 156.826 32.5642ZM153.257 20.9526H160.359V20.8434C160.359 19.9941 160.214 19.2539 159.922 18.623C159.655 17.9678 159.255 17.4582 158.72 17.0942C158.186 16.7302 157.543 16.5482 156.79 16.5482C156.037 16.5482 155.394 16.7302 154.86 17.0942C154.35 17.4582 153.949 17.9678 153.658 18.623C153.391 19.2539 153.257 19.9941 153.257 20.8434V20.9526Z" fill="white"/>
<path d="M179.48 32.2002C177.975 32.2002 176.688 31.9575 175.62 31.4722C174.575 30.9626 173.774 30.1861 173.216 29.1426C172.657 28.0991 172.378 26.7887 172.378 25.2114V17.5674H169.537C169.27 17.5674 169.051 17.4825 168.881 17.3126C168.711 17.1427 168.626 16.9365 168.626 16.6938V14.1822C168.626 13.9153 168.711 13.6969 168.881 13.527C169.051 13.3571 169.27 13.2722 169.537 13.2722H172.378V7.2662C172.378 6.99926 172.463 6.78086 172.633 6.611C172.827 6.44113 173.046 6.3562 173.288 6.3562H176.894C177.137 6.3562 177.343 6.44113 177.513 6.611C177.683 6.78086 177.768 6.99926 177.768 7.2662V13.2722H182.321C182.588 13.2722 182.807 13.3571 182.977 13.527C183.147 13.6969 183.232 13.9153 183.232 14.1822V16.6938C183.232 16.9365 183.147 17.1427 182.977 17.3126C182.807 17.4825 182.588 17.5674 182.321 17.5674H177.768V24.7746C177.768 25.6967 177.938 26.4247 178.278 26.9586C178.618 27.4682 179.189 27.723 179.99 27.723H182.649C182.916 27.723 183.135 27.8079 183.305 27.9778C183.474 28.1477 183.559 28.3539 183.559 28.5966V31.2902C183.559 31.5571 183.474 31.7755 183.305 31.9454C183.135 32.1153 182.916 32.2002 182.649 32.2002H179.48Z" fill="white"/>
<path d="M188.34 32.2002C188.072 32.2002 187.854 32.1153 187.684 31.9454C187.514 31.7755 187.429 31.5571 187.429 31.2902V7.2662C187.429 6.99926 187.514 6.78086 187.684 6.611C187.854 6.44113 188.072 6.3562 188.34 6.3562H192.273C192.54 6.3562 192.759 6.44113 192.929 6.611C193.099 6.78086 193.184 6.99926 193.184 7.2662V15.4562C193.815 14.6797 194.604 14.0609 195.551 13.5998C196.522 13.1387 197.676 12.9082 199.011 12.9082C200.444 12.9082 201.706 13.2358 202.799 13.891C203.916 14.5219 204.778 15.4562 205.385 16.6938C206.016 17.9071 206.332 19.3874 206.332 21.1346V31.2902C206.332 31.5571 206.247 31.7755 206.077 31.9454C205.907 32.1153 205.689 32.2002 205.421 32.2002H201.451C201.209 32.2002 201.002 32.1153 200.832 31.9454C200.662 31.7755 200.577 31.5571 200.577 31.2902V21.353C200.577 20.0669 200.262 19.0719 199.63 18.3682C198.999 17.6402 198.101 17.2762 196.935 17.2762C195.794 17.2762 194.883 17.6402 194.203 18.3682C193.524 19.0719 193.184 20.0669 193.184 21.353V31.2902C193.184 31.5571 193.099 31.7755 192.929 31.9454C192.759 32.1153 192.54 32.2002 192.273 32.2002H188.34Z" fill="white"/>
<path d="M212.293 32.2002C212.05 32.2002 211.832 32.1153 211.638 31.9454C211.468 31.7755 211.383 31.5571 211.383 31.2902V14.1822C211.383 13.9153 211.468 13.6969 211.638 13.527C211.832 13.3571 212.05 13.2722 212.293 13.2722H215.972C216.215 13.2722 216.421 13.3571 216.591 13.527C216.761 13.6969 216.846 13.9153 216.846 14.1822V31.2902C216.846 31.5571 216.761 31.7755 216.591 31.9454C216.421 32.1153 216.215 32.2002 215.972 32.2002H212.293ZM212.184 10.3602C211.941 10.3602 211.735 10.2753 211.565 10.1054C211.395 9.93553 211.31 9.71713 211.31 9.4502V6.5018C211.31 6.25913 211.395 6.05286 211.565 5.883C211.735 5.68886 211.941 5.5918 212.184 5.5918H216.045C216.287 5.5918 216.494 5.68886 216.664 5.883C216.858 6.05286 216.955 6.25913 216.955 6.5018V9.4502C216.955 9.71713 216.858 9.93553 216.664 10.1054C216.494 10.2753 216.287 10.3602 216.045 10.3602H212.184Z" fill="white"/>
<path d="M223.052 32.2002C222.809 32.2002 222.591 32.1153 222.396 31.9454C222.226 31.7755 222.141 31.5571 222.141 31.2902V14.1822C222.141 13.9153 222.226 13.6969 222.396 13.527C222.591 13.3571 222.809 13.2722 223.052 13.2722H226.621C226.888 13.2722 227.107 13.3571 227.277 13.527C227.447 13.6969 227.532 13.9153 227.532 14.1822V15.6018C228.163 14.8253 228.977 14.1822 229.972 13.6726C230.992 13.163 232.206 12.9082 233.614 12.9082C235.047 12.9082 236.309 13.2358 237.402 13.891C238.495 14.5219 239.345 15.4562 239.952 16.6938C240.559 17.9071 240.862 19.3874 240.862 21.1346V31.2902C240.862 31.5571 240.777 31.7755 240.607 31.9454C240.437 32.1153 240.219 32.2002 239.952 32.2002H236.091C235.824 32.2002 235.605 32.1153 235.435 31.9454C235.265 31.7755 235.18 31.5571 235.18 31.2902V21.353C235.18 20.0669 234.865 19.0719 234.233 18.3682C233.626 17.6402 232.728 17.2762 231.538 17.2762C230.397 17.2762 229.486 17.6402 228.807 18.3682C228.151 19.0719 227.823 20.0669 227.823 21.353V31.2902C227.823 31.5571 227.738 31.7755 227.568 31.9454C227.398 32.1153 227.18 32.2002 226.913 32.2002H223.052Z" fill="white"/>
<path d="M246.865 32.2002C246.598 32.2002 246.379 32.1153 246.209 31.9454C246.039 31.7755 245.954 31.5571 245.954 31.2902V7.2662C245.954 6.99926 246.039 6.78086 246.209 6.611C246.379 6.44113 246.598 6.3562 246.865 6.3562H250.434C250.677 6.3562 250.884 6.44113 251.053 6.611C251.248 6.78086 251.345 6.99926 251.345 7.2662V19.5694L256.917 13.891C257.112 13.7211 257.282 13.5755 257.427 13.4542C257.597 13.3329 257.852 13.2722 258.192 13.2722H262.344C262.563 13.2722 262.745 13.3571 262.891 13.527C263.061 13.6726 263.146 13.8546 263.146 14.073C263.146 14.1701 263.121 14.2793 263.073 14.4006C263.024 14.5219 262.939 14.619 262.818 14.6918L255.788 21.7534L263.728 30.817C263.923 31.0111 264.02 31.2053 264.02 31.3994C264.02 31.6178 263.947 31.8119 263.801 31.9818C263.655 32.1274 263.461 32.2002 263.218 32.2002H258.993C258.629 32.2002 258.362 32.1395 258.192 32.0182C258.046 31.8969 257.877 31.7513 257.682 31.5814L251.345 24.447V31.2902C251.345 31.5571 251.248 31.7755 251.053 31.9454C250.884 32.1153 250.677 32.2002 250.434 32.2002H246.865Z" fill="white"/>
<path d="M29.7877 38.5C34.6231 38.5 38.543 34.5825 38.543 29.75C38.543 24.9175 34.6231 21 29.7877 21C24.9523 21 21.0325 24.9175 21.0325 29.75C21.0325 34.5825 24.9523 38.5 29.7877 38.5Z" fill="#EDFF81"/>
<path d="M32.4143 15.75C35.7991 15.75 38.543 13.0077 38.543 9.625C38.543 6.24226 35.7991 3.5 32.4143 3.5C29.0296 3.5 26.2856 6.24226 26.2856 9.625C26.2856 13.0077 29.0296 15.75 32.4143 15.75Z" fill="white"/>
<path d="M9.70315 38.4475C13.0879 38.4475 15.8318 35.7052 15.8318 32.3225C15.8318 28.9398 13.0879 26.1975 9.70315 26.1975C6.31837 26.1975 3.57446 28.9398 3.57446 32.3225C3.57446 35.7052 6.31837 38.4475 9.70315 38.4475Z" fill="white"/>
<path d="M12.2772 21C17.1126 21 21.0325 17.0825 21.0325 12.25C21.0325 7.41751 17.1126 3.5 12.2772 3.5C7.44184 3.5 3.52197 7.41751 3.52197 12.25C3.52197 17.0825 7.44184 21 12.2772 21Z" fill="#EDFF81"/>
</svg>
