<svg width="374" height="199" viewBox="0 0 374 199" fill="none" xmlns="http://www.w3.org/2000/svg">
<path d="M-0.00292969 20.5048V140.826L13.713 138.516L27.4289 128.185C27.4289 126.607 27.4289 11.752 27.4289 10.174L13.713 10.3307L-0.00292969 20.5048Z" fill="#6C8DFF"/>
<path d="M-0.00292969 0V20.5049C3.31244 19.2562 24.0916 11.431 27.4289 10.1741C24.1106 8.94338 3.33735 1.23887 -0.00292969 0Z" fill="#7CAEF8"/>
<path d="M27.7944 144.642L31.2283 171.802L27.7944 198.964C24.4713 197.929 3.66831 191.449 0.323242 190.407C0.323242 187.42 0.323242 139.589 0.323242 136.602L14.0588 137.226L27.7944 144.642Z" fill="#F39321"/>
<path d="M58.1458 135.612V189.34C47.0831 192.785 37.9366 195.633 27.2407 198.964C27.2407 195.945 27.2407 147.673 27.2407 144.654L42.6932 136.617L58.1458 135.612Z" fill="#F3A141"/>
<path fill-rule="evenodd" clip-rule="evenodd" d="M27.4289 124.049L27.4289 124.049C27.4288 124.049 27.4288 124.049 27.4288 124.049L27.4286 124.049V124.049C27.3251 124.097 27.415 124.055 27.4286 124.049V124.049C27.3768 124.073 26.0501 124.684 13.7637 130.346C10.9345 131.649 7.52439 133.221 3.41479 135.115C2.32544 135.617 1.18693 136.141 -0.00292969 136.69L13.713 141.469L27.4286 146.249V146.249C27.4286 146.249 27.4287 146.249 27.4288 146.249L27.4289 146.249L27.4289 146.249C31.1909 144.938 54.5364 136.803 58.2894 135.495L27.4289 124.049L27.4289 124.049C27.4298 124.048 27.4303 124.048 27.4303 124.048C27.4303 124.048 27.4298 124.048 27.4289 124.049ZM27.4289 124.049C27.4289 124.049 27.4289 124.049 27.4289 124.049L27.4289 124.049C27.4289 124.049 27.4289 124.049 27.4289 124.049L27.4289 124.049Z" fill="#F8C67C"/>
<path d="M374 94.8557V158.52L366.851 157.298L359.701 151.832C359.701 150.996 359.701 90.2244 359.701 89.3894L366.851 89.4723L374 94.8557Z" fill="#F3A141"/>
<path d="M374 84.0061V94.8557C372.272 94.195 361.441 90.0545 359.701 89.3895C361.431 88.7382 372.259 84.6616 374 84.0061Z" fill="#F8C67C"/>
<path d="M359.7 161.39L357.913 178.478L359.7 195.567C361.43 194.916 372.258 190.839 373.999 190.183C373.999 188.304 373.999 158.211 373.999 156.331L366.85 156.724L359.7 161.39Z" fill="#5EBA3F"/>
<path d="M343.614 155.699V189.511C349.372 191.679 354.133 193.471 359.7 195.567C359.7 193.667 359.7 163.289 359.7 161.39L351.657 156.331L343.614 155.699Z" fill="#6BCD49"/>
<path fill-rule="evenodd" clip-rule="evenodd" d="M359.7 149.643L359.7 149.643C359.707 149.646 359.755 149.668 359.7 149.643ZM359.7 149.643C359.7 149.643 359.7 149.643 359.7 149.643L359.7 149.643C359.724 149.654 360.405 149.972 366.823 152.975C368.297 153.664 370.073 154.495 372.213 155.496C372.782 155.762 373.377 156.04 373.999 156.331L366.85 158.86L359.7 161.39L359.7 161.389V161.39C357.74 160.696 345.57 156.391 343.614 155.699L359.7 149.643C359.7 149.643 359.7 149.643 359.7 149.643C359.7 149.643 359.7 149.643 359.7 149.643L359.7 149.643V149.643ZM359.7 149.643C359.7 149.643 359.7 149.643 359.7 149.643L359.7 149.643V149.643Z" fill="#C9F87C"/>
</svg>
