<svg width="768" height="199" viewBox="0 0 768 199" fill="none" xmlns="http://www.w3.org/2000/svg">
<path d="M-0.950195 20.5048V140.826L27.2497 138.516L55.4496 128.185C55.4496 126.607 55.4496 11.752 55.4496 10.174L27.2497 10.3307L-0.950195 20.5048Z" fill="#6C8DFF"/>
<path d="M-0.950195 0V20.5049C5.8662 19.2562 48.5881 11.431 55.4496 10.1741C48.6271 8.94338 5.91743 1.23887 -0.950195 0Z" fill="#7CAEF8"/>
<path d="M56.2009 144.642L63.261 171.802L56.2009 198.964C49.3686 197.929 6.59768 191.449 -0.279785 190.407C-0.279785 187.42 -0.279785 139.589 -0.279785 136.602L27.9605 137.226L56.2009 144.642Z" fill="#F39321"/>
<path d="M118.603 135.612V189.34C95.8585 192.785 77.0532 195.633 55.0625 198.964C55.0625 195.945 55.0625 147.673 55.0625 144.654L86.8329 136.617L118.603 135.612Z" fill="#F3A141"/>
<path fill-rule="evenodd" clip-rule="evenodd" d="M55.4497 124.049L55.4496 124.049C55.4495 124.049 55.4494 124.049 55.4493 124.049L55.449 124.049V124.049C55.2362 124.097 55.421 124.055 55.449 124.049V124.049C55.3427 124.073 52.615 124.684 27.354 130.346C21.5345 131.65 14.5195 133.222 6.06488 135.117C3.82873 135.619 1.49188 136.142 -0.950195 136.69L27.2497 141.469L55.449 146.249V146.249C55.4491 146.249 55.4492 146.249 55.4494 146.249L55.4496 146.249L55.4497 146.249C63.1843 144.938 111.183 136.803 118.899 135.495L55.4497 124.049L55.4497 124.049C55.4516 124.048 55.4524 124.048 55.4524 124.048C55.4524 124.048 55.4515 124.048 55.4497 124.049ZM55.4497 124.049C55.4496 124.049 55.4496 124.049 55.4496 124.049L55.4496 124.049C55.4496 124.049 55.4497 124.049 55.4497 124.049L55.4497 124.049Z" fill="#F8C67C"/>
<path d="M768 94.8557V158.52L753.301 157.298L738.602 151.832C738.602 150.996 738.602 90.2244 738.602 89.3894L753.301 89.4723L768 94.8557Z" fill="#F3A141"/>
<path d="M768 84.0061V94.8557C764.447 94.195 742.178 90.0545 738.602 89.3895C742.158 88.7382 764.42 84.6616 768 84.0061Z" fill="#F8C67C"/>
<path d="M738.6 161.39L734.925 178.478L738.6 195.567C742.156 194.916 764.418 190.839 767.998 190.183C767.998 188.304 767.998 158.211 767.998 156.331L753.299 156.724L738.6 161.39Z" fill="#5EBA3F"/>
<path d="M705.526 155.699V189.511C717.365 191.679 727.153 193.471 738.6 195.567C738.6 193.667 738.6 163.289 738.6 161.39L722.063 156.331L705.526 155.699Z" fill="#6BCD49"/>
<path fill-rule="evenodd" clip-rule="evenodd" d="M738.6 149.643V149.643C738.6 149.643 738.6 149.643 738.6 149.643V149.643C738.6 149.643 738.6 149.643 738.6 149.643V149.643L738.6 149.643C738.599 149.643 738.598 149.643 738.598 149.643C738.598 149.643 738.599 149.643 738.6 149.643L705.527 155.699C709.549 156.391 734.569 160.696 738.6 161.39L753.299 158.86L767.998 156.331L764.378 155.508C759.954 154.501 756.286 153.667 753.245 152.975C740.048 149.972 738.649 149.654 738.6 149.643L738.6 149.643ZM738.6 149.643C738.613 149.646 738.712 149.668 738.6 149.643L738.6 149.643Z" fill="#C9F87C"/>
</svg>
