<svg width="150" height="28" viewBox="0 0 150 28" fill="none" xmlns="http://www.w3.org/2000/svg">
<path d="M7.704 22.24C6.216 22.24 4.968 22.024 3.96 21.592C2.968 21.144 2.208 20.568 1.68 19.864C1.168 19.144 0.896 18.392 0.864 17.608C0.864 17.464 0.912 17.344 1.008 17.248C1.104 17.152 1.224 17.104 1.368 17.104H3.504C3.712 17.104 3.864 17.152 3.96 17.248C4.072 17.328 4.168 17.432 4.248 17.56C4.344 17.864 4.528 18.168 4.8 18.472C5.072 18.76 5.44 19 5.904 19.192C6.384 19.384 6.984 19.48 7.704 19.48C8.856 19.48 9.712 19.288 10.272 18.904C10.848 18.52 11.136 18 11.136 17.344C11.136 16.88 10.984 16.512 10.68 16.24C10.376 15.952 9.904 15.696 9.264 15.472C8.64 15.232 7.808 14.984 6.768 14.728C5.568 14.44 4.56 14.096 3.744 13.696C2.944 13.28 2.336 12.76 1.92 12.136C1.52 11.512 1.32 10.72 1.32 9.76C1.32 8.832 1.568 8.008 2.064 7.288C2.576 6.568 3.296 6 4.224 5.584C5.168 5.168 6.288 4.96 7.584 4.96C8.624 4.96 9.544 5.104 10.344 5.392C11.144 5.664 11.808 6.032 12.336 6.496C12.864 6.944 13.264 7.432 13.536 7.96C13.824 8.472 13.976 8.976 13.992 9.472C13.992 9.6 13.944 9.72 13.848 9.832C13.768 9.928 13.648 9.976 13.488 9.976H11.256C11.128 9.976 11 9.944 10.872 9.88C10.744 9.816 10.64 9.696 10.56 9.52C10.464 9.024 10.152 8.6 9.624 8.248C9.096 7.896 8.416 7.72 7.584 7.72C6.72 7.72 6.024 7.88 5.496 8.2C4.968 8.52 4.704 9.016 4.704 9.688C4.704 10.136 4.832 10.512 5.088 10.816C5.36 11.104 5.784 11.36 6.36 11.584C6.952 11.808 7.728 12.048 8.688 12.304C10.048 12.608 11.16 12.96 12.024 13.36C12.888 13.76 13.52 14.272 13.92 14.896C14.32 15.504 14.52 16.28 14.52 17.224C14.52 18.28 14.232 19.184 13.656 19.936C13.096 20.672 12.304 21.24 11.28 21.64C10.256 22.04 9.064 22.24 7.704 22.24ZM22.8384 22.24C21.0624 22.24 19.6544 21.728 18.6144 20.704C17.5744 19.68 17.0144 18.224 16.9344 16.336C16.9184 16.176 16.9104 15.976 16.9104 15.736C16.9104 15.48 16.9184 15.28 16.9344 15.136C16.9984 13.92 17.2704 12.88 17.7504 12.016C18.2464 11.136 18.9264 10.464 19.7904 10C20.6544 9.52 21.6704 9.28 22.8384 9.28C24.1344 9.28 25.2224 9.552 26.1024 10.096C26.9824 10.624 27.6464 11.368 28.0944 12.328C28.5424 13.272 28.7664 14.368 28.7664 15.616V16.12C28.7664 16.28 28.7104 16.416 28.5984 16.528C28.4864 16.64 28.3424 16.696 28.1664 16.696H20.1984C20.1984 16.696 20.1984 16.72 20.1984 16.768C20.1984 16.816 20.1984 16.856 20.1984 16.888C20.2144 17.448 20.3184 17.968 20.5104 18.448C20.7184 18.912 21.0144 19.288 21.3984 19.576C21.7984 19.864 22.2704 20.008 22.8144 20.008C23.2624 20.008 23.6384 19.944 23.9424 19.816C24.2464 19.672 24.4944 19.512 24.6864 19.336C24.8784 19.16 25.0144 19.016 25.0944 18.904C25.2384 18.712 25.3504 18.6 25.4304 18.568C25.5264 18.52 25.6624 18.496 25.8384 18.496H27.9024C28.0624 18.496 28.1904 18.544 28.2864 18.64C28.3984 18.736 28.4464 18.856 28.4304 19C28.4144 19.256 28.2784 19.568 28.0224 19.936C27.7824 20.304 27.4304 20.664 26.9664 21.016C26.5024 21.368 25.9184 21.664 25.2144 21.904C24.5264 22.128 23.7344 22.24 22.8384 22.24ZM20.1984 14.68H25.5024V14.608C25.5024 13.984 25.3984 13.44 25.1904 12.976C24.9824 12.496 24.6784 12.128 24.2784 11.872C23.8784 11.6 23.3984 11.464 22.8384 11.464C22.2784 11.464 21.7984 11.6 21.3984 11.872C20.9984 12.128 20.6944 12.496 20.4864 12.976C20.2944 13.44 20.1984 13.984 20.1984 14.608V14.68ZM37.17 22.24C35.394 22.24 33.986 21.728 32.946 20.704C31.906 19.68 31.346 18.224 31.266 16.336C31.25 16.176 31.242 15.976 31.242 15.736C31.242 15.48 31.25 15.28 31.266 15.136C31.33 13.92 31.602 12.88 32.082 12.016C32.578 11.136 33.258 10.464 34.122 10C34.986 9.52 36.002 9.28 37.17 9.28C38.466 9.28 39.554 9.552 40.434 10.096C41.314 10.624 41.978 11.368 42.426 12.328C42.874 13.272 43.098 14.368 43.098 15.616V16.12C43.098 16.28 43.042 16.416 42.93 16.528C42.818 16.64 42.674 16.696 42.498 16.696H34.53C34.53 16.696 34.53 16.72 34.53 16.768C34.53 16.816 34.53 16.856 34.53 16.888C34.546 17.448 34.65 17.968 34.842 18.448C35.05 18.912 35.346 19.288 35.73 19.576C36.13 19.864 36.602 20.008 37.146 20.008C37.594 20.008 37.97 19.944 38.274 19.816C38.578 19.672 38.826 19.512 39.018 19.336C39.21 19.16 39.346 19.016 39.426 18.904C39.57 18.712 39.682 18.6 39.762 18.568C39.858 18.52 39.994 18.496 40.17 18.496H42.234C42.394 18.496 42.522 18.544 42.618 18.64C42.73 18.736 42.778 18.856 42.762 19C42.746 19.256 42.61 19.568 42.354 19.936C42.114 20.304 41.762 20.664 41.298 21.016C40.834 21.368 40.25 21.664 39.546 21.904C38.858 22.128 38.066 22.24 37.17 22.24ZM34.53 14.68H39.834V14.608C39.834 13.984 39.73 13.44 39.522 12.976C39.314 12.496 39.01 12.128 38.61 11.872C38.21 11.6 37.73 11.464 37.17 11.464C36.61 11.464 36.13 11.6 35.73 11.872C35.33 12.128 35.026 12.496 34.818 12.976C34.626 13.44 34.53 13.984 34.53 14.608V14.68ZM52.9779 22C52.8019 22 52.6579 21.944 52.5459 21.832C52.4339 21.72 52.3779 21.584 52.3779 21.424V5.8C52.3779 5.624 52.4339 5.48 52.5459 5.368C52.6579 5.256 52.8019 5.2 52.9779 5.2H54.8739C55.0979 5.2 55.2659 5.264 55.3779 5.392C55.4899 5.504 55.5619 5.592 55.5939 5.656L60.2259 14.296L64.9059 5.656C64.9379 5.592 65.0099 5.504 65.1219 5.392C65.2339 5.264 65.4019 5.2 65.6259 5.2H67.4979C67.6739 5.2 67.8179 5.256 67.9299 5.368C68.0419 5.48 68.0979 5.624 68.0979 5.8V21.424C68.0979 21.584 68.0419 21.72 67.9299 21.832C67.8179 21.944 67.6739 22 67.4979 22H65.4819C65.3059 22 65.1619 21.944 65.0499 21.832C64.9539 21.72 64.9059 21.584 64.9059 21.424V11.032L61.5459 17.44C61.4659 17.584 61.3619 17.712 61.2339 17.824C61.1059 17.92 60.9379 17.968 60.7299 17.968H59.7459C59.5219 17.968 59.3459 17.92 59.2179 17.824C59.1059 17.712 59.0099 17.584 58.9299 17.44L55.5699 11.032V21.424C55.5699 21.584 55.5139 21.72 55.4019 21.832C55.2899 21.944 55.1539 22 54.9939 22H52.9779ZM77.5431 22.24C76.2631 22.24 75.1831 22.016 74.3031 21.568C73.4391 21.12 72.7751 20.488 72.3111 19.672C71.8631 18.856 71.6071 17.904 71.5431 16.816C71.5271 16.528 71.5191 16.176 71.5191 15.76C71.5191 15.344 71.5271 14.992 71.5431 14.704C71.6071 13.6 71.8711 12.648 72.3351 11.848C72.8151 11.032 73.4871 10.4 74.3511 9.952C75.2311 9.504 76.2951 9.28 77.5431 9.28C78.7911 9.28 79.8471 9.504 80.7111 9.952C81.5911 10.4 82.2631 11.032 82.7271 11.848C83.2071 12.648 83.4791 13.6 83.5431 14.704C83.5591 14.992 83.5671 15.344 83.5671 15.76C83.5671 16.176 83.5591 16.528 83.5431 16.816C83.4791 17.904 83.2151 18.856 82.7511 19.672C82.3031 20.488 81.6391 21.12 80.7591 21.568C79.8951 22.016 78.8231 22.24 77.5431 22.24ZM77.5431 19.864C78.3911 19.864 79.0471 19.6 79.5111 19.072C79.9751 18.528 80.2311 17.736 80.2791 16.696C80.2951 16.456 80.3031 16.144 80.3031 15.76C80.3031 15.376 80.2951 15.064 80.2791 14.824C80.2311 13.784 79.9751 13 79.5111 12.472C79.0471 11.928 78.3911 11.656 77.5431 11.656C76.6951 11.656 76.0391 11.928 75.5751 12.472C75.1111 13 74.8551 13.784 74.8071 14.824C74.7911 15.064 74.7831 15.376 74.7831 15.76C74.7831 16.144 74.7911 16.456 74.8071 16.696C74.8551 17.736 75.1111 18.528 75.5751 19.072C76.0391 19.6 76.6951 19.864 77.5431 19.864ZM87.2822 22C87.1222 22 86.9862 21.944 86.8742 21.832C86.7622 21.72 86.7062 21.584 86.7062 21.424V10.12C86.7062 9.944 86.7622 9.8 86.8742 9.688C86.9862 9.576 87.1222 9.52 87.2822 9.52H89.2262C89.3862 9.52 89.5222 9.576 89.6342 9.688C89.7622 9.8 89.8262 9.944 89.8262 10.12V11.104C90.1942 10.592 90.6662 10.2 91.2422 9.928C91.8342 9.656 92.5142 9.52 93.2822 9.52H94.2662C94.4422 9.52 94.5782 9.576 94.6742 9.688C94.7862 9.8 94.8422 9.936 94.8422 10.096V11.824C94.8422 11.984 94.7862 12.12 94.6742 12.232C94.5782 12.344 94.4422 12.4 94.2662 12.4H92.3942C91.6262 12.4 91.0262 12.616 90.5942 13.048C90.1782 13.464 89.9702 14.056 89.9702 14.824V21.424C89.9702 21.584 89.9142 21.72 89.8022 21.832C89.6902 21.944 89.5462 22 89.3702 22H87.2822ZM102.406 22.24C100.63 22.24 99.2219 21.728 98.1819 20.704C97.1419 19.68 96.5819 18.224 96.5019 16.336C96.4859 16.176 96.4779 15.976 96.4779 15.736C96.4779 15.48 96.4859 15.28 96.5019 15.136C96.5659 13.92 96.8379 12.88 97.3179 12.016C97.8139 11.136 98.4939 10.464 99.3579 10C100.222 9.52 101.238 9.28 102.406 9.28C103.702 9.28 104.79 9.552 105.67 10.096C106.55 10.624 107.214 11.368 107.662 12.328C108.11 13.272 108.334 14.368 108.334 15.616V16.12C108.334 16.28 108.278 16.416 108.166 16.528C108.054 16.64 107.91 16.696 107.734 16.696H99.7659C99.7659 16.696 99.7659 16.72 99.7659 16.768C99.7659 16.816 99.7659 16.856 99.7659 16.888C99.7819 17.448 99.8859 17.968 100.078 18.448C100.286 18.912 100.582 19.288 100.966 19.576C101.366 19.864 101.838 20.008 102.382 20.008C102.83 20.008 103.206 19.944 103.51 19.816C103.814 19.672 104.062 19.512 104.254 19.336C104.446 19.16 104.582 19.016 104.662 18.904C104.806 18.712 104.918 18.6 104.998 18.568C105.094 18.52 105.23 18.496 105.406 18.496H107.47C107.63 18.496 107.758 18.544 107.854 18.64C107.966 18.736 108.014 18.856 107.998 19C107.982 19.256 107.846 19.568 107.59 19.936C107.35 20.304 106.998 20.664 106.534 21.016C106.07 21.368 105.486 21.664 104.782 21.904C104.094 22.128 103.302 22.24 102.406 22.24ZM99.7659 14.68H105.07V14.608C105.07 13.984 104.966 13.44 104.758 12.976C104.55 12.496 104.246 12.128 103.846 11.872C103.446 11.6 102.966 11.464 102.406 11.464C101.846 11.464 101.366 11.6 100.966 11.872C100.566 12.128 100.262 12.496 100.054 12.976C99.8619 13.44 99.7659 13.984 99.7659 14.608V14.68Z" fill="#A3B938"/>
<path d="M0 23.8H109.294V25H0V23.8Z" fill="#A3B938"/>
<path d="M145.75 13.7257L130.75 13.7257" stroke="#A3B938" stroke-width="1.5" stroke-linecap="round" stroke-linejoin="round"/>
<path d="M139.7 7.70118C139.7 7.70118 145.75 10.9622 145.75 13.7242C145.75 16.4882 139.7 19.7502 139.7 19.7502" stroke="#A3B938" stroke-width="1.5" stroke-linecap="round" stroke-linejoin="round"/>
</svg>
